<svg width="512" height="512" viewBox="0 0 512 512" fill="none" xmlns="http://www.w3.org/2000/svg">
  <!-- Letter T -->
  <path d="M 100 120 L 260 120 L 260 180 L 210 180 L 210 400 L 150 400 L 150 180 L 100 180 Z" fill="#3b82f6"/>
  
  <!-- Letter B -->
  <path d="M 280 120 L 380 120 Q 430 120 430 170 Q 430 210 400 220 Q 440 230 440 280 Q 440 340 380 340 L 280 340 Z
           M 330 170 L 330 200 L 370 200 Q 380 200 380 185 Q 380 170 370 170 Z
           M 330 240 L 330 290 L 380 290 Q 390 290 390 265 Q 390 240 380 240 Z" 
        fill="#3b82f6"/>
</svg>
